<?xml version="1.0" encoding="utf-8"?>
<!-- Generator: Adobe Illustrator 26.0.3, SVG Export Plug-In . SVG Version: 6.00 Build 0)  -->
<svg version="1.1" id="Layer_2" xmlns="http://www.w3.org/2000/svg" xmlns:xlink="http://www.w3.org/1999/xlink" x="0px" y="0px"
	 viewBox="0 0 612 792" style="enable-background:new 0 0 612 792;" xml:space="preserve">
<style type="text/css">
	.st0{fill:none;stroke:#000000;stroke-width:8;stroke-miterlimit:10;}
</style>
<path class="st0" d="M109.78,102.8c-7.22-10.28-2.58-29.79,7.4-35.15c2.37-1.27,8.43-3.56,27.13,5.55
	c29.04,14.15,45.03,34.6,47.48,32.68c3.03-2.38-23.98-31.73-15.42-46.86c3.78-6.68,14.77-11.11,23.43-8.63
	c33.25,9.49,20.63,117.3,45.63,121.48c6.96,1.16,14.38-6.12,17.27-9.87c7.76-10.06,4.37-22.57,3.08-36.38
	c-2.8-30.08,3.99-70.14,22.2-77.7c6.61-2.74,15.68-1.59,19.73,3.08c4.55,5.25,2.04,14.1,0.62,19.73
	c-0.61,2.42-15.23,62.22-3.7,60.43c18.54-2.88,32.85-36.44,52.77-63.55c1.74-2.36,3.01-11.37,4.37-13.79
	c1.24-2.21,7.49-5.9,9.6-4.45c3.05,2.09-1.57,13.82,1.7,17.05c2.66,2.63,8.58,2.53,10.48,0c2.63-3.49-0.01-9.61,2.61-13.47
	c1.99-2.95,10.82-4.6,14.09-1.93c2.03,1.65,0.77,6.56-0.39,13.9c-0.73,4.62-0.03,7.73,0.33,8.9c4.15,13.42,28.11,13.42,29.6,21.58
	c1.29,7.07-9.49,17.34-18.5,17.27c-3.56-0.03-4.29-2.72-11.72-4.32c-7.03-1.51-14.69-1.3-18.25-0.54
	c-16.19,3.44-25.89,15.48-27.7,18.66c-8.07,14.19-8.46,20.39-8.65,32.89c-0.06,3.82-0.21,6.75,7.74,10.04
	c12.79,5.29,16.27,3.97,22.82,6.78c18.04,7.76,15.78,28.2,35.15,38.23c7.94,4.11,12.9,3.05,14.8,2.47c3.9-1.2,4.85-3.43,8.02-5.55
	c9.14-6.12,16.65,2.15,27.13-1.23c12.47-4.03,10.87-18.64,25.28-22.82c5.58-1.61,11.86-1.18,12.95,1.23
	c1.36,3.01-6.27,7.17-5.55,14.18c0.25,2.48,1.59,5.7,3.7,6.17c3.47,0.76,5.87-6.61,9.87-6.17c3.94,0.44,5.87,8.06,6.17,9.25
	c0.1,0.41,2.44,10.07-1.85,12.95c-2.6,1.74-5.24-0.6-7.4,1.23c-2.62,2.23-2.24,8.67,0.62,10.48c2.82,1.79,6.82-1.74,8.63,0
	c1.98,1.9-1.63,7.19,0,8.63c2.07,1.83,8.56-6.06,14.18-4.32c5.07,1.58,8.14,10.59,5.55,14.18c-1.75,2.42-5.17,1.1-6.78,3.7
	c-1.79,2.88-0.09,8.53,3.08,9.87c3.6,1.52,6.47-3.65,11.1-2.47c4.03,1.03,7.48,6.37,6.17,9.87c-0.91,2.42-3.91,3.44-4.14,3.52
	c-2.96,0.97-5.41-0.43-5.73,0.18c-0.49,0.95,6.01,3.25,6.78,7.4c0.87,4.67-5.52,11.58-11.72,11.72c-6.74,0.15-11.92-7.77-12.33-7.4
	c-0.73,0.66,21.74,20.97,17.27,30.22c-2.27,4.7-10.72,4.91-11.72,4.93c-7.31,0.18-12.07-3.89-32.68-14.8
	c-2.48-1.31-5.94-3.08-9.25-1.85c-4.23,1.57-5.75,7.13-6.17,8.63c-1.72,6.26,0.08,11.82,0.62,13.57c5.84,19.13,2.51,49.38-5.55,59.2
	c-0.75,0.92-3.05,3.48-3.7,7.4c-0.75,4.51,1.1,8.19,1.85,9.87c6.2,13.95,1.5,38.09-5.55,45.63c-0.62,0.66-2.55,2.58-3.08,5.55
	c-0.68,3.78,0.98,7.3,1.85,8.02c11.01,9.03,13.35,17.85,15.86,28.45c3.77,15.92-3.78,34.15-13.4,57.88
	c-7.12,17.56-22.37,46.34-27.75,58.58c-0.8,1.82-2.36,5.51-3.7,10.48c-1.33,4.96-1.78,8.74-1.85,9.25
	c-0.89,6.53-25.89,106.35-90.03,118.39c-41.69,7.83-80.11-25.13-101.13-43.16c-13.04-11.18-14.77-15.59-42.55-50.56
	c-65.83-82.85-84.51-93.83-101.13-135.66c-10.44-26.27-15.7-39.51-16.65-59.2c-0.71-14.6,1.26-26.58-4.32-45.01
	c-4.42-14.62-8.98-18.06-12.33-27.75c-7.65-22.11,2.36-43.31,12.33-65.98c11.01-25.03,31.35-54.86,44.4-61.66
	c1.23-0.64,5.59-2.74,8.02-7.4c3.2-6.15,1.04-12.91,0.62-14.8c-4.87-21.51,69.62-53.82,69.68-88.18
	c0.03-17.43-19.09-30.55-22.2-32.68C150.35,100.55,120.73,118.4,109.78,102.8z"/>
<path class="st0" d="M297.32,240c8.68,5.84,32.59,6.27,47.4,2.78c3.24-0.76,9.16-2.31,16.2-5.14c8.62-3.47,27.1-17.3,40.83-29.87"/>
<path class="st0" d="M355.27,239.74c-8.05-12.78-31.61-14.92-47.54-7.44c-20.25,9.51-28,28.94-31.56,39.58
	c-8.28,24.75-1.63,46.6,1.35,54.77"/>
<path class="st0" d="M296.98,358.3c-19.96,14.86-28.02,29.3-29.72,36.94c-0.65,2.93-5.73,4.18-10.35,4.57
	c-11.31,0.96-23.93-10.35-25.37-22.23c-0.04-0.3-0.28-2.44,0-4.59c2.27-17.17,40.02-45.75,46.98-50.95
	c14.7-11.17,21.57-26.13,17.78-35.33c-1.02-2.47-3.82-6.98-8.35-10.83c-3.77-3.19-7.53-4.9-10.05-5.81"/>
<path class="st0" d="M79.47,435.03c32.74-11.26,51.62-19.25,53.72-24.8c0.38-1.01,1.84-5.48,5.81-7.36c3.86-1.83,8.06-0.26,8.91,0
	c5.53,1.64,42.86-19.65,54.35-52.79c-27.91-66.47,3.33-122.04,8.63-125.18c0.5-0.29,3.91-2.07,4.93-5.55
	c1.34-4.57-2.26-9.26-3.08-10.48c-3.59-5.36-2.1-19.51,19.37-57.66"/>
<path class="st0" d="M500.54,252.06"/>
<path class="st0" d="M462.74,455.51c-1.18,7.64-32.7,11.31-49.08,8.28c-7.26-1.34-41.36-7.65-50.21-33.04
	c-4.65-13.33-0.15-25.68,3-34.33c7.77-21.34,28.81-48.76,54.07-46.78c8.81,0.69,16.19,4.8,21.89,9.44"/>
<path class="st0" d="M513.06,245.25c6.51,24.83-35.41,26.07-113.57,36.59c-4.33,0.58-5.09,0.12-9.44,2.15
	c-10.31,4.8-16.28,17.31-17.17,28.32c-0.71,8.83,2.37,10.18,2.15,17.6c-0.43,13.94-13.2,17.62-19.31,30.9
	c-3.07,6.68-5.55,17.56-0.43,34.76"/>
<path class="st0" d="M368.11,439.78c1.42,25.07-11.76,53.78-26.92,73.76c-1.85,2.44-3.75,4.73-5.67,6.89"/>
<path class="st0" d="M336.54,518.15c-0.97,13.57,0.82,37.33-7.11,57.4c-13.65,34.56-35.27,56.72-48.23,68.09"/>
<path class="st0" d="M347.32,616.6c8.55-16.84,4.14-42.67-15.07-49.75"/>
<path class="st0" d="M258.32,571.79c4.66-9.73,15.26-28.4,36.37-43.5c15.11-10.81,43.72-22.17,53.27-24.47"/>
<path class="st0" d="M407.01,577.77c-0.02-10.64-2.56-28.2-11.05-48.11c-8.24-19.33-25.16-36.98-40.23-44.63"/>
</svg>